<svg width="265" height="56" viewBox="0 0 265 56" fill="none" xmlns="http://www.w3.org/2000/svg">
<g clip-path="url(#clip0_0_11)">
<mask id="mask0_0_11" style="mask-type:luminance" maskUnits="userSpaceOnUse" x="70" y="13" width="195" height="30">
<path d="M70 13.419H264.106V42.2156H70V13.419Z" fill="white"/>
</mask>
<g mask="url(#mask0_0_11)">
<path d="M70 27.8124C70 19.3928 76.1292 13.419 84.4704 13.419C89.355 13.419 93.226 15.281 95.8062 18.6368L91.0504 23.1168C90.3346 22.1197 89.3959 21.3033 88.3092 20.7326C87.241 20.1727 86.0531 19.8797 84.847 19.8786C80.5252 19.8786 77.5208 23.0398 77.5208 27.783C77.5208 32.5262 80.5252 35.6972 84.8932 35.6972C86.0944 35.6972 87.2802 35.4046 88.3554 34.8432C89.4422 34.272 90.3808 33.4552 91.0966 32.4576L95.8062 36.9964C93.2442 40.3522 89.3536 42.2156 84.4886 42.2156C76.1292 42.2156 70 36.2404 70 27.8124ZM118.777 36.2782H107.653L105.589 41.6612H97.9944L109.635 13.972H117.008L128.593 41.664H120.851L118.777 36.2782ZM116.602 30.5074L113.219 21.6426L109.837 30.5074H116.602ZM134.513 20.2076H126.393V13.9706H149.96V20.2076H141.886V41.6612H134.513V20.2076ZM169.051 36.2782H157.927L155.863 41.6612H148.268L159.881 13.9706H167.254L178.905 41.6626H171.163L169.051 36.2782ZM166.877 30.5074L163.485 21.6426L160.103 30.5074H166.877ZM182.725 13.972H190.172V35.455H202.716V41.6612H182.717L182.725 13.972ZM205.138 27.8124C205.138 19.5104 211.341 13.419 219.765 13.419C228.189 13.419 234.382 19.509 234.382 27.811C234.382 36.113 228.179 42.2156 219.765 42.2156C211.35 42.2156 205.138 36.1242 205.138 27.8124ZM226.87 27.8124C226.87 23.03 223.747 19.908 219.765 19.908C215.783 19.908 212.659 23.03 212.659 27.8124C212.659 32.5934 215.783 35.7266 219.765 35.7266C223.747 35.7266 226.87 32.6046 226.87 27.8124ZM256.927 27.2202H263.544V38.6946C260.318 40.9983 256.449 42.23 252.484 42.2156C244.098 42.2156 237.978 36.2404 237.978 27.8124C237.978 19.3844 244.07 13.419 252.605 13.419C257.526 13.419 261.517 15.204 264.107 18.4814L259.37 22.9922C258.599 22.0214 257.62 21.2362 256.505 20.6948C255.408 20.163 254.202 19.8937 252.983 19.908C248.466 19.908 245.462 23.03 245.462 27.8124C245.462 32.5934 248.466 35.7266 252.909 35.7266C254.301 35.7394 255.676 35.4273 256.927 34.8152V27.2202Z" fill="white"/>
</g>
<path d="M41.3784 0H14.6216C10.7437 0 7.02465 1.54049 4.28257 4.28257C1.54049 7.02465 6.70431e-08 10.7437 6.70431e-08 14.6216V41.3784C-0.000183815 43.2986 0.37789 45.2 1.11263 46.9741C1.84737 48.7481 2.92438 50.3601 4.28216 51.7178C5.63994 53.0756 7.25188 54.1526 9.02594 54.8874C10.8 55.6221 12.7014 56.0002 14.6216 56H41.3784C43.2986 56.0002 45.2 55.6221 46.9741 54.8874C48.7481 54.1526 50.3601 53.0756 51.7178 51.7178C53.0756 50.3601 54.1526 48.7481 54.8874 46.9741C55.6221 45.2 56.0002 43.2986 56 41.3784V14.6216C56 10.7437 54.4595 7.02465 51.7174 4.28257C48.9754 1.54049 45.2563 0 41.3784 0ZM47.8184 38.514H8.1858V31.8528H19.9598L10.682 22.575L15.393 17.8654L24.6694 27.1432V14.119H31.3292V27.1432L40.6112 17.8654L45.3208 22.575L36.0416 31.8528H47.8212V38.5154L47.8184 38.514Z" fill="#5CFFD5"/>
</g>
<defs>
<clipPath id="clip0_0_11">
<rect width="264.6" height="56" fill="white"/>
</clipPath>
</defs>
</svg>
