<svg width="265" height="56" viewBox="0 0 265 56" fill="none" xmlns="http://www.w3.org/2000/svg">
<rect x="6" y="13" width="43" height="31" fill="black"/>
<mask id="mask0_16_661" style="mask-type:luminance" maskUnits="userSpaceOnUse" x="0" y="0" width="265" height="56">
<path d="M264.6 0H0V56H264.6V0Z" fill="white"/>
</mask>
<g mask="url(#mask0_16_661)">
<path d="M70 27.8123C70 19.3927 76.1292 13.4189 84.4704 13.4189C89.355 13.4189 93.226 15.2809 95.8062 18.6367L91.0504 23.1167C90.3346 22.1196 89.3959 21.3032 88.3092 20.7325C87.241 20.1726 86.0531 19.8796 84.847 19.8785C80.5252 19.8785 77.5208 23.0397 77.5208 27.7829C77.5208 32.5261 80.5252 35.6971 84.8932 35.6971C86.0944 35.6971 87.2802 35.4045 88.3554 34.8431C89.4422 34.2719 90.3808 33.4551 91.0966 32.4575L95.8062 36.9963C93.2442 40.3521 89.3536 42.2155 84.4886 42.2155C76.1292 42.2155 70 36.2403 70 27.8123ZM118.777 36.2781H107.653L105.589 41.6611H97.9944L109.635 13.9719H117.008L128.593 41.6639H120.851L118.777 36.2781ZM116.602 30.5073L113.219 21.6425L109.837 30.5073H116.602ZM134.513 20.2075H126.393V13.9705H149.96V20.2075H141.886V41.6611H134.513V20.2075ZM169.051 36.2781H157.927L155.863 41.6611H148.268L159.881 13.9705H167.254L178.905 41.6625H171.163L169.051 36.2781ZM166.877 30.5073L163.485 21.6425L160.103 30.5073H166.877ZM182.725 13.9719H190.172V35.4549H202.716V41.6611H182.717L182.725 13.9719ZM205.138 27.8123C205.138 19.5103 211.341 13.4189 219.765 13.4189C228.189 13.4189 234.382 19.5089 234.382 27.8109C234.382 36.1129 228.179 42.2155 219.765 42.2155C211.35 42.2155 205.138 36.1241 205.138 27.8123ZM226.87 27.8123C226.87 23.0299 223.747 19.9079 219.765 19.9079C215.783 19.9079 212.659 23.0299 212.659 27.8123C212.659 32.5933 215.783 35.7265 219.765 35.7265C223.747 35.7265 226.87 32.6045 226.87 27.8123ZM256.927 27.2201H263.544V38.6945C260.318 40.9982 256.449 42.2299 252.484 42.2155C244.098 42.2155 237.978 36.2403 237.978 27.8123C237.978 19.3843 244.07 13.4189 252.605 13.4189C257.526 13.4189 261.517 15.2039 264.107 18.4813L259.37 22.9921C258.599 22.0213 257.62 21.2361 256.505 20.6947C255.408 20.1629 254.202 19.8936 252.983 19.9079C248.466 19.9079 245.462 23.0299 245.462 27.8123C245.462 32.5933 248.466 35.7265 252.909 35.7265C254.301 35.7393 255.676 35.4272 256.927 34.8151V27.2201Z" fill="black"/>
<path d="M41.3784 0H14.6216C10.7437 0 7.02465 1.54049 4.28257 4.28257C1.54049 7.02465 6.70431e-08 10.7437 6.70431e-08 14.6216V41.3784C-0.000183815 43.2986 0.37789 45.2 1.11263 46.9741C1.84737 48.7481 2.92438 50.3601 4.28216 51.7178C5.63994 53.0756 7.25188 54.1526 9.02594 54.8874C10.8 55.6221 12.7014 56.0002 14.6216 56H41.3784C43.2986 56.0002 45.2 55.6221 46.9741 54.8874C48.7481 54.1526 50.3601 53.0756 51.7178 51.7178C53.0756 50.3601 54.1526 48.7481 54.8874 46.9741C55.6221 45.2 56.0002 43.2986 56 41.3784V14.6216C56 10.7437 54.4595 7.02465 51.7174 4.28257C48.9754 1.54049 45.2563 0 41.3784 0ZM47.8184 38.514H8.1858V31.8528H19.9598L10.682 22.575L15.393 17.8654L24.6694 27.1432V14.119H31.3292V27.1432L40.6112 17.8654L45.3208 22.575L36.0416 31.8528H47.8212V38.5154L47.8184 38.514Z" fill="#5CFFD5"/>
</g>
</svg>
